HIERARCHY
ROOT Hips
{
	OFFSET 0.0000 0.0000 0.0000
	CHANNELS 6 Xposition Yposition Zposition Zrotation Xrotation Yrotation
	JOINT Ab
	{
		OFFSET -0.0000 8.0846 -0.0000
		CHANNELS 3 Zrotation Xrotation Yrotation
		JOINT Chest
		{
			OFFSET -0.0000 25.0068 -0.0000
			CHANNELS 3 Zrotation Xrotation Yrotation
			JOINT Neck
			{
				OFFSET -0.0000 25.0068 0.0000
				CHANNELS 3 Zrotation Xrotation Yrotation
				JOINT Head
				{
					OFFSET -0.0000 10.7556 0.0000
					CHANNELS 3 Zrotation Xrotation Yrotation
					End Site
					{
						OFFSET -0.0000 16.6222 0.0000
					}
				}
			}
			JOINT LeftCollar
			{
				OFFSET -0.0000 25.0068 0.0000
				CHANNELS 3 Zrotation Xrotation Yrotation
				JOINT LeftShoulder
				{
					OFFSET 19.5556 -0.0000 0.0000
					CHANNELS 3 Zrotation Xrotation Yrotation
					JOINT LeftElbow
					{
						OFFSET 27.1828 0.0000 0.0000
						CHANNELS 3 Zrotation Xrotation Yrotation
						JOINT LeftWrist
						{
							OFFSET 23.3157 0.0000 0.0000
							CHANNELS 3 Zrotation Xrotation Yrotation
							End Site
							{
								OFFSET 0.0000 -14.6667 0.0000
							}
						}
					}
				}
			}
			JOINT RightCollar
			{
				OFFSET -0.0000 25.0068 0.0000
				CHANNELS 3 Zrotation Xrotation Yrotation
				JOINT RightShoulder
				{
					OFFSET -19.5556 0.0000 0.0000
					CHANNELS 3 Zrotation Xrotation Yrotation
					JOINT RightElbow
					{
						OFFSET -27.1828 0.0000 0.0000
						CHANNELS 3 Zrotation Xrotation Yrotation
						JOINT RightWrist
						{
							OFFSET -23.3157 0.0000 0.0000
							CHANNELS 3 Zrotation Xrotation Yrotation
							End Site
							{
								OFFSET -0.0000 -14.6667 0.0000
							}
						}
					}
				}
			}
		}
	}
	JOINT LeftHip
	{
		OFFSET 11.7333 0.0000 0.0000
		CHANNELS 3 Zrotation Xrotation Yrotation
		JOINT LeftKnee
		{
			OFFSET -0.0000 -40.8688 0.0000
			CHANNELS 3 Zrotation Xrotation Yrotation
			JOINT LeftAnkle
			{
				OFFSET -0.0000 -44.4337 0.0000
				CHANNELS 3 Zrotation Xrotation Yrotation
				End Site
				{
					OFFSET -0.0000 -4.8889 16.6222
				}
			}
		}
	}
	JOINT RightHip
	{
		OFFSET -11.7333 0.0000 0.0000
		CHANNELS 3 Zrotation Xrotation Yrotation
		JOINT RightKnee
		{
			OFFSET -0.0000 -40.8688 0.0000
			CHANNELS 3 Zrotation Xrotation Yrotation
			JOINT RightAnkle
			{
				OFFSET -0.0000 -44.4337 0.0000
				CHANNELS 3 Zrotation Xrotation Yrotation
				End Site
				{
					OFFSET -0.0000 -4.8889 16.6222
				}
			}
		}
	}
}
MOTION
Frames: 10
Frame Time: 0.010000
1.8537 87.8583 134.3610 1.1945 353.4643 176.4976 1.9073 9.8627 0.4010 358.8439 6.7144 0.6420 5.0720 338.1720 2.2526 355.4836 357.9946 1.1783 345.4575 356.7593 25.8168 334.9871 64.4648 337.5428 46.0468 342.2947 319.7725 88.6547 354.4452 17.0400 17.8037 358.6402 350.9663 47.8728 53.2834 22.9205 328.8430 346.2508 46.3834 277.0831 348.6147 18.9934 6.7906 327.3289 0.0797 320.7146 67.0808 31.8264 355.6781 342.5755 18.6399 4.8641 345.6122 0.4228 357.9530 30.2134 13.5123 352.5262 335.3172 334.6913 
2.0161 87.7498 133.2480 1.1727 353.8119 176.5092 1.7404 10.1465 0.6811 358.6992 7.0296 0.9258 5.1075 338.4705 2.1200 355.3809 357.6318 1.0471 345.7683 356.7676 26.3715 334.2056 64.4650 338.9673 46.0994 342.2620 320.3272 88.6468 354.2896 16.5435 17.4494 358.6592 351.0686 45.5451 53.6907 25.9410 328.4966 345.9060 47.2465 276.2674 348.6882 17.9378 6.9543 325.7930 0.5370 322.2989 66.4729 29.9767 356.5062 342.3908 19.1034 4.7740 347.0923 0.1417 358.0595 29.4380 13.6901 352.5352 335.2074 334.6854 
2.2099 87.6101 132.1213 1.2415 354.1864 176.2850 1.6311 10.4823 1.0474 358.4965 7.2964 1.2842 5.1519 338.8026 2.0298 355.3483 357.2709 0.9524 346.0003 356.7492 26.9122 333.4245 64.5830 340.4151 46.4047 342.3064 321.0630 88.6699 354.2448 16.4963 17.2461 358.6873 351.2331 43.0113 54.1168 28.9567 327.9597 345.4008 48.0211 276.0334 348.3382 16.9719 7.4349 324.5116 1.2999 323.9871 65.4773 27.6481 357.2258 341.9993 19.9175 4.8892 348.5273 0.1231 358.0689 28.8437 14.2891 352.1677 335.2050 334.2243 
2.4077 87.4525 131.0182 1.3539 354.4189 176.1909 1.6028 10.6632 1.3045 358.3366 7.6475 1.5592 4.8605 338.9372 1.7863 355.6223 357.0352 0.7658 346.1222 356.7178 27.0330 331.5799 64.1347 343.0015 46.5766 342.4548 321.1580 88.8023 354.5052 16.5581 17.1189 358.7032 351.2670 40.1342 54.3471 32.1607 327.3149 344.7933 48.8297 276.5777 347.8612 16.3242 7.9087 323.1415 1.9539 325.6519 64.2793 25.5570 358.4840 341.8392 20.8512 5.0402 349.7671 0.0285 358.0777 28.3457 14.8107 351.8688 335.1416 333.8551 
2.5829 87.2526 130.0539 1.4253 354.1666 176.3344 1.5464 10.5625 1.5277 358.3065 7.7512 1.7812 4.6376 339.2865 1.4929 355.6419 356.5774 0.5084 346.0484 356.6490 26.9490 329.5881 63.4966 346.0459 46.6640 342.4966 320.8873 89.1604 355.0152 16.7903 16.9605 358.7359 351.5113 38.2136 54.1439 34.1736 327.0192 344.3028 50.1894 276.3061 347.6422 15.5626 8.1677 321.1330 2.2805 327.4967 63.0077 23.5536 0.3801 342.2528 21.8476 5.1403 350.2909 359.7250 358.0925 28.0215 14.0605 352.2875 334.8624 334.9338 
2.7628 87.0099 128.9237 1.6932 354.3206 176.3449 1.8630 10.7579 1.5221 358.1000 7.9455 1.8361 4.0839 339.6444 1.2940 356.2161 356.0884 0.4397 346.0768 356.5532 27.8366 329.9859 64.1727 346.2680 46.9308 342.6443 322.3169 88.9772 354.4913 16.4513 16.9201 358.7755 351.8300 35.3502 54.1428 37.0411 326.7734 343.8058 51.2709 275.9963 347.5119 14.7755 8.5918 319.8601 2.6291 329.5865 61.3570 21.5285 0.7465 342.5677 21.7520 5.4281 351.4072 359.5763 358.1049 27.6500 14.1823 352.0570 334.5851 334.8606 
2.8890 86.7287 127.8346 1.7873 354.3947 176.1715 2.0537 10.8849 1.6801 357.6815 8.1843 2.0479 3.9056 340.0843 1.2995 356.5125 355.3932 0.4902 346.1675 356.5309 27.9568 327.3909 62.4871 349.3942 46.1371 343.1731 321.8810 89.4236 354.8393 15.9917 16.9973 358.8139 352.3097 32.5253 54.0598 39.9067 326.3526 343.2609 52.1000 276.3177 347.3883 14.1189 8.9092 318.7525 3.0472 332.0504 59.2975 18.9218 1.9828 343.7068 22.3107 5.4988 352.3178 359.4549 358.2210 27.4598 14.3185 352.3716 333.8001 334.8223 
2.9952 86.4018 126.6894 1.9004 354.6326 175.9383 2.4299 11.3093 1.7172 357.0988 8.1296 2.1683 3.2736 340.6079 1.1867 357.2309 354.8601 0.5236 346.2310 356.5489 27.8009 324.2364 60.1913 353.1960 44.8500 343.6327 320.9579 89.6830 355.2710 14.5586 17.2390 358.8528 352.7787 29.5397 54.0208 42.7084 325.9940 342.8163 52.7614 276.3281 347.3156 13.6192 9.2490 317.9874 3.5817 334.4887 57.2679 16.4929 2.7425 343.4729 22.4879 5.5466 353.4310 359.2689 358.2686 27.2964 14.6470 352.1809 333.4228 334.6980 
3.0934 86.0519 125.4801 2.0579 354.8993 175.7285 2.7725 11.3731 1.7688 356.6496 8.7523 2.3102 2.5350 340.7300 1.0292 357.9285 354.5001 0.5220 346.2812 356.5799 27.8342 322.5333 59.2894 354.7281 44.4725 343.6906 320.5238 89.9361 355.5326 14.3035 17.3489 358.9050 353.2189 26.5562 53.6668 45.7435 325.7355 342.4486 53.4375 276.2241 347.3605 13.1688 9.5366 317.4438 3.9743 336.5535 54.6219 15.0240 2.2159 343.9898 22.4285 5.6087 354.6813 359.0856 358.3417 27.0371 14.9232 351.9362 333.1308 334.6034 
3.2170 85.6916 124.2185 2.3113 355.1073 175.5164 3.1301 11.3692 1.8798 356.3000 9.2922 2.5001 1.8453 340.8919 0.9199 358.5223 354.1834 0.5613 346.3158 356.6179 27.5799 320.0777 57.3080 356.8905 43.3282 344.0124 319.3533 90.5264 355.7527 13.4760 17.5014 358.9635 353.7127 23.8952 53.2287 48.3732 325.5796 342.1778 54.0451 276.0725 347.4216 12.4946 9.9358 317.0376 4.4716 338.5514 51.8102 13.9108 1.0881 344.8646 22.1558 5.7572 355.9780 358.9807 358.4930 26.6578 15.0354 351.6371 332.8939 334.5424 
